<svg width="58" height="58" viewBox="0 0 58 58" fill="none" xmlns="http://www.w3.org/2000/svg">
<g clip-path="url(#clip0_3878_4873)">
<path d="M36.9863 39.8154L25.9945 28.7995L36.9863 17.7837L33.6024 14.3997L19.2026 28.7995L33.6024 43.1993L36.9863 39.8154Z" fill="white"/>
<path d="M4.80151 28.7995C4.80151 42.0541 15.5465 52.7991 28.8011 52.7991C42.0558 52.7991 52.8008 42.0541 52.8008 28.7995C52.8008 15.5449 42.0558 4.79985 28.8011 4.79985C15.5465 4.79985 4.80151 15.5449 4.80151 28.7995ZM50.5998 28.7995C50.5998 40.8385 40.8402 50.5981 28.8011 50.5981C16.7621 50.5981 7.0025 40.8385 7.0025 28.7995C7.0025 16.7604 16.7621 7.00084 28.8011 7.00084C40.8402 7.00084 50.5998 16.7604 50.5998 28.7995Z" fill="white" fill-opacity="0.53"/>
</g>
<defs>
<clipPath id="clip0_3878_4873">
<rect width="57.5991" height="57.5991" fill="white" transform="matrix(-1 0 0 1 57.5996 0)"/>
</clipPath>
</defs>
</svg>
