<svg width="996" height="748" viewBox="0 0 996 748" fill="none" xmlns="http://www.w3.org/2000/svg">
<path d="M946.307 684.331L947.442 683.349L946.993 682.831H946.307V684.331ZM961.454 704.126C961.996 704.752 962.944 704.82 963.57 704.278C964.197 703.736 964.265 702.789 963.723 702.162L961.454 704.126ZM529.975 685.831H946.307V682.831H529.975V685.831ZM945.173 685.312L961.454 704.126L963.723 702.162L947.442 683.349L945.173 685.312Z" fill="#6CBACE"/>
<path d="M634.011 672.573H597.579C597.483 672.573 597.392 672.619 597.336 672.697L579.16 697.966C579.017 698.164 579.159 698.441 579.404 698.441H613.563C613.654 698.441 613.74 698.4 613.797 698.329L634.244 673.061C634.403 672.865 634.263 672.573 634.011 672.573Z" fill="#6CBACE" stroke="#6CBACE" stroke-width="3"/>
<path d="M689.832 672.573H653.4C653.304 672.573 653.213 672.619 653.157 672.697L634.981 697.966C634.839 698.164 634.981 698.441 635.225 698.441H669.385C669.475 698.441 669.561 698.4 669.618 698.329L690.065 673.061C690.224 672.865 690.084 672.573 689.832 672.573Z" fill="#6CBACE" stroke="#6CBACE" stroke-width="3"/>
<path d="M745.653 672.573H709.222C709.125 672.573 709.035 672.619 708.978 672.697L690.803 697.966C690.66 698.164 690.802 698.441 691.046 698.441H725.206C725.297 698.441 725.382 698.4 725.439 698.329L745.887 673.061C746.045 672.865 745.906 672.573 745.653 672.573Z" fill="#6CBACE" stroke="#6CBACE" stroke-width="3"/>
<path d="M801.475 672.573H765.043C764.946 672.573 764.856 672.619 764.799 672.697L746.624 697.966C746.481 698.164 746.623 698.441 746.868 698.441H781.027C781.118 698.441 781.204 698.4 781.26 698.329L801.708 673.061C801.867 672.865 801.727 672.573 801.475 672.573Z" fill="#6CBACE" stroke="#6CBACE" stroke-width="3"/>
<path d="M857.296 672.573H820.864C820.768 672.573 820.677 672.619 820.621 672.697L802.445 697.966C802.303 698.164 802.444 698.441 802.689 698.441H836.849C836.939 698.441 837.025 698.4 837.082 698.329L857.529 673.061C857.688 672.865 857.548 672.573 857.296 672.573Z" fill="#6CBACE" stroke="#6CBACE" stroke-width="3"/>
<path d="M804.429 7.05493H878.736C878.813 7.05493 878.888 7.08518 878.944 7.13928L985.847 110.528" stroke="#6CBACE" stroke-width="3"/>
<path d="M902.116 684.331L990.413 595.056C990.469 595 990.5 594.924 990.5 594.845V371.69C990.5 371.608 990.466 371.529 990.407 371.472L951.053 334.023C950.993 333.967 950.96 333.888 950.96 333.806V141.099" stroke="#6CBACE" stroke-width="3"/>
<path d="M18.2812 584.066V187.033L97.3612 107.627H346.23L425.31 28.2198H867.228L967.241 130.981V586.402L890.487 661.138H553.234L509.042 707.847H141.553L18.2812 584.066Z" stroke="#6CBACE" stroke-width="3"/>
<path d="M62.4727 625.54V660.697C62.4727 660.772 62.5012 660.845 62.5527 660.901L132.16 735.971C132.217 736.032 132.297 736.067 132.38 736.067H236.78C236.865 736.067 236.946 736.031 237.003 735.968L260.173 710.199" stroke="#6CBACE" stroke-width="3"/>
<path d="M388.096 56.4396H64.9365C64.8491 56.4396 64.7661 56.4778 64.7091 56.544L18.2812 110.528" stroke="#6CBACE" stroke-width="3"/>
<path d="M4.32617 392.726V169.438C4.32617 169.362 4.35554 169.288 4.40824 169.232L55.4956 115.231" stroke="#6CBACE" stroke-width="3"/>
<path d="M2.0867 378.528L17.7679 362.674C17.9564 362.483 18.2812 362.616 18.2812 362.884V518.985C18.2812 519.253 17.9564 519.387 17.7679 519.196L2.0867 503.341C2.03116 503.285 2 503.209 2 503.13V378.739C2 378.66 2.03115 378.585 2.0867 378.528Z" fill="#6CBACE" stroke="#6CBACE" stroke-width="3"/>
<path d="M983.435 190.396L967.754 174.541C967.565 174.351 967.24 174.484 967.24 174.752V330.853C967.24 331.121 967.565 331.255 967.754 331.064L983.435 315.209C983.49 315.153 983.521 315.077 983.521 314.998V190.607C983.521 190.528 983.49 190.452 983.435 190.396Z" fill="#6CBACE" stroke="#6CBACE" stroke-width="3"/>
<path d="M776.607 9.49566L792.294 25.3572C792.482 25.5467 792.348 25.8682 792.081 25.8682L637.684 25.8682C637.418 25.8682 637.284 25.5467 637.471 25.3572L653.159 9.49566C653.215 9.43868 653.292 9.40662 653.372 9.40662L776.393 9.40662C776.474 9.40662 776.55 9.43868 776.607 9.49566Z" fill="#6CBACE" stroke="#6CBACE" stroke-width="3"/>
<path d="M65.4277 689.296L71.5525 673.011C71.6297 672.806 71.8907 672.75 72.0434 672.906L121.278 723.185C121.43 723.341 121.373 723.604 121.169 723.68L105.002 729.71C104.892 729.751 104.769 729.723 104.687 729.639L65.4946 689.615C65.4123 689.531 65.3862 689.406 65.4277 689.296Z" fill="#6CBACE" stroke="#6CBACE" stroke-width="3"/>
<path d="M685.635 37.5872L701.105 28.7806C701.372 28.6282 701.264 28.2199 700.956 28.2199L545.063 28.2199C544.755 28.2199 544.647 28.6282 544.915 28.7806L560.385 37.5872C560.43 37.6129 560.481 37.6265 560.534 37.6265L685.486 37.6265C685.538 37.6265 685.589 37.6129 685.635 37.5872Z" fill="#6CBACE" stroke="#6CBACE" stroke-width="3"/>
<path d="M157.834 724.309V747.825" stroke="#6CBACE" stroke-width="3"/>
<path d="M167.138 724.309V747.825" stroke="#6CBACE" stroke-width="3"/>
<path d="M176.441 724.309V747.825" stroke="#6CBACE" stroke-width="3"/>
<path d="M185.744 724.309V747.825" stroke="#6CBACE" stroke-width="3"/>
<path d="M195.048 724.309V747.825" stroke="#6CBACE" stroke-width="3"/>
<path d="M167.138 47.0331H143.879V70.5496H167.138V47.0331Z" fill="#081B20" stroke="#6CBACE" stroke-width="1.5"/>
<path d="M204.352 47.0331H181.093V70.5496H204.352V47.0331Z" fill="#081B20" stroke="#6CBACE" stroke-width="1.5"/>
<path d="M241.565 47.0331H218.307V70.5496H241.565V47.0331Z" fill="#081B20" stroke="#6CBACE" stroke-width="1.5"/>
<path d="M278.78 47.0331H255.521V70.5496H278.78V47.0331Z" fill="#081B20" stroke="#6CBACE" stroke-width="1.5"/>
<path d="M315.994 47.0331H292.735V70.5496H315.994V47.0331Z" fill="#081B20" stroke="#6CBACE" stroke-width="1.5"/>
<ellipse cx="964.915" cy="707.847" rx="6.97764" ry="7.05496" fill="#6CBACE"/>
<ellipse cx="988.173" cy="115.231" rx="6.97764" ry="7.05496" fill="#6CBACE"/>
<ellipse cx="952.978" cy="141.055" rx="6.97764" ry="7.05496" fill="#6CBACE"/>
<ellipse cx="806.755" cy="7.05496" rx="6.97764" ry="7.05496" fill="#6CBACE"/>
<ellipse cx="15.9552" cy="110.528" rx="6.97764" ry="7.05496" fill="#6CBACE"/>
<ellipse cx="53.1691" cy="115.231" rx="6.97764" ry="7.05496" fill="#6CBACE"/>
</svg>
