<svg width="41" height="40" viewBox="0 0 41 40" fill="none" xmlns="http://www.w3.org/2000/svg">
<path id="Vector" d="M20.5 0C9.47799 0 0.5 8.97799 0.5 20C0.5 31.022 9.47799 40 20.5 40C31.522 40 40.5 31.022 40.5 20C40.5 8.97799 31.522 0 20.5 0ZM20.5 4C29.3602 4 36.5 11.1398 36.5 20C36.5 28.0289 30.6306 34.626 22.9375 35.7969V24.7695H27.5938L28.3242 20.0391H22.9375V17.4531C22.9375 15.4871 23.578 13.7422 25.418 13.7422H28.3711V9.61328C27.8511 9.54328 26.7537 9.39062 24.6797 9.39062C20.3477 9.39062 17.8086 11.6786 17.8086 16.8906V20.0391H13.3555V24.7695H17.8086V35.7578C10.2406 34.4817 4.5 27.9405 4.5 20C4.5 11.1398 11.6398 4 20.5 4Z" fill="white"/>
</svg>
