<svg width="164" height="63" viewBox="0 0 164 63" fill="none" xmlns="http://www.w3.org/2000/svg">
<g clip-path="url(#clip0_3633_8746)">
<path d="M94.37 12.4717L81.2 27.4207L68.14 12.4717C65.93 10.0052 60.55 8 56.12 8H32.02C27.59 8 24 10.306 24 13.1635V48.8466C24 51.694 27.59 54.01 32.02 54.01H56.11C60.54 54.01 65.93 52.0048 68.14 49.5384L81.2 34.5894L94.37 49.5384C96.6 52.0048 102.04 54.01 106.51 54.01H130.81C135.28 54.01 138.9 51.704 138.9 48.8466V13.1635C138.9 10.316 135.28 8 130.81 8H106.51C102.04 8 96.61 10.0052 94.37 12.4717Z" fill="#E1F9FF"/>
<path d="M32.0195 9.67432H56.1195C59.6295 9.67432 64.2395 11.3788 65.9795 13.3238L79.9295 29.2955C80.6295 30.0976 81.7695 30.0976 82.4695 29.2955L96.5495 13.3138C98.2995 11.3788 102.96 9.67432 106.51 9.67432H130.81C133.88 9.67432 136.38 11.2384 136.38 13.1634V48.8465C136.38 50.7715 133.88 52.3356 130.81 52.3356H106.51C102.96 52.3356 98.2995 50.6312 96.5395 48.6761L82.4695 32.7144C81.7695 31.9123 80.6295 31.9224 79.9295 32.7144L65.9695 48.6961C64.2395 50.6211 59.6295 52.3356 56.1195 52.3356H32.0195C28.9895 52.3356 26.5195 50.7715 26.5195 48.8465V13.1634C26.5195 11.2384 28.9895 9.67432 32.0195 9.67432Z" fill="#E3F9FF"/>
<path d="M130.81 31V52.3256H106.51C102.96 52.3256 98.3005 50.6112 96.5405 48.6661L82.4705 32.7044C81.9505 32.1129 81.6905 31.5615 81.7005 31H130.81Z" fill="#FCC74F"/>
<path d="M136.38 31V52.3256H106.51C102.96 52.3256 98.3005 50.6112 96.5405 48.6661L82.4705 32.7044C81.9505 32.1129 81.6905 31.5615 81.7005 31H136.38Z" fill="#FCC74F"/>
<path d="M26.5195 31V52.3256H56.3895C59.9395 52.3256 64.5995 50.6112 66.3595 48.6661L80.4295 32.7044C80.9495 32.1129 81.2095 31.5615 81.1995 31H26.5195Z" fill="#FCC74F"/>
<g style="mix-blend-mode:overlay">
<path d="M136.38 43.2018V48.6861C134.96 49.4281 133.11 49.8692 131.09 49.8692H106.79C102.32 49.8692 96.8795 47.9943 94.6495 45.6783L81.4795 31.6818L68.4195 45.6783C66.2095 47.9943 60.8195 49.8692 56.3895 49.8692H32.2995C30.0195 49.8692 27.9695 49.2977 26.5195 48.3753V42.9812C27.9695 43.643 30.0195 44.0641 32.2995 44.0641H56.3895C60.8195 44.0641 66.2095 42.7005 68.4195 41.0061L81.4795 30.7794L94.6495 41.0061C96.8795 42.7005 102.32 44.0641 106.79 44.0641H131.09C133.11 44.0641 134.96 43.7432 136.38 43.2018Z" fill="#0C2732"/>
</g>
</g>
<g clip-path="url(#clip1_3633_8746)">
<path d="M147.75 54.2101H142.41C140.53 54.2101 139 53.2001 139 51.9501V9.07006C139 7.82006 140.53 6.81006 142.41 6.81006H147.76V54.2001L147.75 54.2101Z" fill="#363949"/>
<path d="M163.49 0V61.03H151.16C149.28 61.03 147.75 60.02 147.75 58.77V2.25C147.75 1.01 149.28 0 151.16 0H163.49Z" fill="#44475A"/>
<path d="M150.31 1.10999C150.77 1.10999 151.15 1.35999 151.15 1.66999V58.96C151.15 59.27 150.77 59.52 150.31 59.52C149.85 59.52 149.47 59.27 149.47 58.96V1.66999C149.47 1.35999 149.85 1.10999 150.31 1.10999Z" fill="#666B84"/>
<g style="mix-blend-mode:overlay" opacity="0.5">
<path d="M163.49 12.01V26.77H151.16C149.28 26.77 147.75 26.94 147.75 27.15V13.48C147.75 12.67 149.28 12.01 151.16 12.01H163.49Z" fill="white"/>
</g>
<g style="mix-blend-mode:overlay">
<path d="M147.76 48.4301V55.5901C147.85 56.7101 149.34 57.5901 151.16 57.5901H163.49V49.8901H151.16C149.34 49.8901 147.85 49.2401 147.76 48.4301Z" fill="#0C2732"/>
</g>
</g>
<g clip-path="url(#clip2_3633_8746)">
<path d="M15.7402 7.81995H21.0902C22.9702 7.81995 24.5002 8.82995 24.5002 10.0799V52.9599C24.5002 54.2099 22.9702 55.2199 21.0902 55.2199H15.7402V7.82995V7.81995Z" fill="#363949"/>
<path d="M15.73 3.25V59.77C15.73 61.02 14.21 62.03 12.33 62.03H0V1H12.33C14.21 1 15.73 2.01 15.73 3.25Z" fill="#44475A"/>
<path d="M13.1798 60.92C12.7198 60.92 12.3398 60.67 12.3398 60.36V3.08002C12.3398 2.77002 12.7198 2.52002 13.1798 2.52002C13.6398 2.52002 14.0198 2.77002 14.0198 3.08002V60.37C14.0198 60.68 13.6398 60.93 13.1798 60.93V60.92Z" fill="#666B84"/>
<g style="mix-blend-mode:overlay" opacity="0.5">
<path d="M15.73 14.48V28.15C15.73 27.94 14.21 27.76 12.33 27.76H0V13.01H12.33C14.21 13.01 15.73 13.67 15.73 14.48Z" fill="white"/>
</g>
<g style="mix-blend-mode:overlay">
<path d="M15.73 49.4301V56.5901C15.64 57.7101 14.15 58.5901 12.33 58.5901H0V50.8901H12.33C14.15 50.8901 15.64 50.2401 15.73 49.4301Z" fill="#0C2732"/>
</g>
</g>
<defs>
<clipPath id="clip0_3633_8746">
<rect width="114.9" height="46" fill="white" transform="translate(24 8)"/>
</clipPath>
<clipPath id="clip1_3633_8746">
<rect width="24.49" height="61.03" fill="white" transform="translate(139)"/>
</clipPath>
<clipPath id="clip2_3633_8746">
<rect width="24.49" height="61.03" fill="white" transform="translate(0 1)"/>
</clipPath>
</defs>
</svg>
