<svg width="217" height="81" viewBox="0 0 217 81" fill="none" xmlns="http://www.w3.org/2000/svg">
<g clip-path="url(#clip0_3633_8852)">
<path d="M20.8125 9.01782H27.8866C30.3724 9.01782 32.3955 10.3533 32.3955 12.0061V68.7047C32.3955 70.3575 30.3724 71.693 27.8866 71.693H20.8125V9.03104V9.01782Z" fill="#363949"/>
<path d="M20.7992 2.97509V77.7093C20.7992 79.3621 18.7893 80.6976 16.3035 80.6976H0V0H16.3035C18.7893 0 20.7992 1.33548 20.7992 2.97509Z" fill="#44475A"/>
<path d="M17.4271 79.2299C16.8189 79.2299 16.3164 78.8993 16.3164 78.4894V2.75035C16.3164 2.34045 16.8189 2.00989 17.4271 2.00989C18.0353 2.00989 18.5378 2.34045 18.5378 2.75035V78.5027C18.5378 78.9126 18.0353 79.2431 17.4271 79.2431V79.2299Z" fill="#666B84"/>
<g style="mix-blend-mode:overlay" opacity="0.5">
<path d="M20.7992 17.8241V35.8994C20.7992 35.6217 18.7893 35.3837 16.3035 35.3837H0V15.8804H16.3035C18.7893 15.8804 20.7992 16.7531 20.7992 17.8241Z" fill="white"/>
</g>
<g style="mix-blend-mode:overlay">
<path d="M20.7992 64.0371V73.5045C20.6802 74.9854 18.71 76.149 16.3035 76.149H0V65.9676H16.3035C18.71 65.9676 20.6802 65.1081 20.7992 64.0371Z" fill="#0C2732"/>
</g>
</g>
<g clip-path="url(#clip1_3633_8852)">
<g opacity="0.63">
<path d="M125.049 16.6273L107.634 36.451L90.3654 16.6273C87.4432 13.3566 80.3293 10.6975 74.4716 10.6975H42.6047C36.747 10.6975 32 13.7555 32 17.5447V64.8636C32 68.6395 36.747 71.7108 42.6047 71.7108H74.4584C80.3161 71.7108 87.4432 69.0517 90.3654 65.781L107.634 45.9573L125.049 65.781C127.998 69.0517 135.191 71.7108 141.101 71.7108H173.233C179.143 71.7108 183.93 68.6528 183.93 64.8636V17.5447C183.93 13.7688 179.143 10.6975 173.233 10.6975H141.101C135.191 10.6975 128.011 13.3566 125.049 16.6273Z" fill="#7EFBFE"/>
<path d="M42.6046 12.9178H74.4715C79.1127 12.9178 85.2084 15.1781 87.5092 17.7574L105.955 38.9372C106.881 40.0009 108.388 40.0009 109.314 38.9372L127.931 17.7441C130.245 15.1781 136.407 12.9178 141.101 12.9178H173.233C177.292 12.9178 180.598 14.992 180.598 17.5447V64.8636C180.598 67.4163 177.292 69.4904 173.233 69.4904H141.101C136.407 69.4904 130.245 67.2302 127.918 64.6375L109.314 43.471C108.388 42.4074 106.881 42.4207 105.955 43.471L87.496 64.6641C85.2084 67.2169 79.1127 69.4904 74.4715 69.4904H42.6046C38.5981 69.4904 35.332 67.4163 35.332 64.8636V17.5447C35.332 14.992 38.5981 12.9178 42.6046 12.9178Z" fill="#7EFBFE"/>
<path d="M178.598 40.2399C179.702 40.2399 180.598 41.1353 180.598 42.2399V66.5195C180.598 67.6241 179.702 68.5195 178.598 68.5195H141.101C136.407 68.5195 130.245 66.246 127.918 63.6666L109.313 42.5001C109.181 42.3494 109.062 42.2006 108.955 42.0534C108.316 41.1699 109.169 40.2399 110.26 40.2399H178.598Z" fill="#6064AE"/>
<path d="M37.3311 40.2399C36.2265 40.2399 35.3311 41.1353 35.3311 42.2399V66.5195C35.3311 67.6241 36.2265 68.5195 37.3311 68.5195H74.8276C79.5217 68.5195 85.6835 66.246 88.0107 63.6666L106.615 42.5001C106.747 42.3494 106.867 42.2006 106.973 42.0534C107.613 41.1699 106.759 40.2399 105.669 40.2399H37.3311Z" fill="#6064AE"/>
<g style="mix-blend-mode:overlay">
<path d="M180.597 56.4209V63.6936C178.719 64.6775 176.273 65.2625 173.602 65.2625H141.47C135.56 65.2625 128.367 62.7762 125.418 59.705L108.004 41.1444L90.7346 59.705C87.8124 62.7762 80.6853 65.2625 74.8276 65.2625H42.9738C39.959 65.2625 37.2484 64.5046 35.3311 63.2815V56.1284C37.2484 57.0059 39.959 57.5644 42.9738 57.5644H74.8276C80.6853 57.5644 87.8124 55.7562 90.7346 53.5092L108.004 39.9478L125.418 53.5092C128.367 55.7562 135.56 57.5644 141.47 57.5644H173.602C176.273 57.5644 178.719 57.1389 180.597 56.4209Z" fill="#4A422B"/>
</g>
</g>
</g>
<g clip-path="url(#clip2_3633_8852)">
<path d="M195.57 71.6798H188.509C186.023 71.6798 184 70.3443 184 68.6915V11.9929C184 10.3401 186.023 9.00464 188.509 9.00464H195.583V71.6666L195.57 71.6798Z" fill="#363949"/>
<path d="M216.382 0V80.6976H200.078C197.592 80.6976 195.569 79.3621 195.569 77.7093V2.97509C195.569 1.33548 197.592 0 200.078 0H216.382Z" fill="#44475A"/>
<path d="M198.954 1.46765C199.563 1.46765 200.065 1.79822 200.065 2.20812V77.9604C200.065 78.3703 199.563 78.7009 198.954 78.7009C198.346 78.7009 197.844 78.3703 197.844 77.9604V2.20812C197.844 1.79822 198.346 1.46765 198.954 1.46765Z" fill="#666B84"/>
<g style="mix-blend-mode:overlay" opacity="0.5">
<path d="M216.382 15.8804V35.3969H200.078C197.592 35.3969 195.569 35.6217 195.569 35.8994V17.8241C195.569 16.7531 197.592 15.8804 200.078 15.8804H216.382Z" fill="white"/>
</g>
<g style="mix-blend-mode:overlay">
<path d="M195.583 64.0371V73.5045C195.702 74.9854 197.672 76.149 200.079 76.149H216.382V65.9676H200.079C197.672 65.9676 195.702 65.1081 195.583 64.0371Z" fill="#0C2732"/>
</g>
</g>
<defs>
<clipPath id="clip0_3633_8852">
<rect width="32.3822" height="80.6976" fill="white"/>
</clipPath>
<clipPath id="clip1_3633_8852">
<rect width="151.93" height="61" fill="white" transform="translate(32 10.6975)"/>
</clipPath>
<clipPath id="clip2_3633_8852">
<rect width="32.3822" height="80.6976" fill="white" transform="translate(184)"/>
</clipPath>
</defs>
</svg>
