<svg width="36" height="36" viewBox="0 0 36 36" fill="none" xmlns="http://www.w3.org/2000/svg">
<path id="Vector" d="M10.2222 0.5C4.86139 0.5 0.5 4.86139 0.5 10.2222V25.7778C0.5 31.1386 4.86139 35.5 10.2222 35.5H25.7778C31.1386 35.5 35.5 31.1386 35.5 25.7778V10.2222C35.5 4.86139 31.1386 0.5 25.7778 0.5H10.2222ZM10.2222 4.38889H25.7778C28.9939 4.38889 31.6111 7.00611 31.6111 10.2222V25.7778C31.6111 28.9939 28.9939 31.6111 25.7778 31.6111H10.2222C7.00611 31.6111 4.38889 28.9939 4.38889 25.7778V10.2222C4.38889 7.00611 7.00611 4.38889 10.2222 4.38889ZM27.7222 6.33333C27.2065 6.33333 26.7119 6.53819 26.3473 6.90285C25.9826 7.2675 25.7778 7.76208 25.7778 8.27778C25.7778 8.79348 25.9826 9.28805 26.3473 9.65271C26.7119 10.0174 27.2065 10.2222 27.7222 10.2222C28.2379 10.2222 28.7325 10.0174 29.0972 9.65271C29.4618 9.28805 29.6667 8.79348 29.6667 8.27778C29.6667 7.76208 29.4618 7.2675 29.0972 6.90285C28.7325 6.53819 28.2379 6.33333 27.7222 6.33333ZM18 8.27778C12.6392 8.27778 8.27778 12.6392 8.27778 18C8.27778 23.3608 12.6392 27.7222 18 27.7222C23.3608 27.7222 27.7222 23.3608 27.7222 18C27.7222 12.6392 23.3608 8.27778 18 8.27778ZM18 12.1667C21.2161 12.1667 23.8333 14.7839 23.8333 18C23.8333 21.2161 21.2161 23.8333 18 23.8333C14.7839 23.8333 12.1667 21.2161 12.1667 18C12.1667 14.7839 14.7839 12.1667 18 12.1667Z" fill="white"/>
</svg>
