<svg width="58" height="58" viewBox="0 0 58 58" fill="none" xmlns="http://www.w3.org/2000/svg">
<g clip-path="url(#clip0_3878_5014)">
<path d="M20.6133 39.8156L31.6051 28.7997L20.6133 17.7839L23.9972 14.4L38.397 28.7997L23.9972 43.1995L20.6133 39.8156Z" fill="white"/>
<path d="M52.7981 28.7996C52.7981 42.0542 42.0531 52.7992 28.7985 52.7992C15.5438 52.7992 4.79883 42.0542 4.79883 28.7996C4.79883 15.5449 15.5438 4.79993 28.7985 4.79993C42.0531 4.79993 52.7981 15.5449 52.7981 28.7996ZM6.99982 28.7996C6.99982 40.8386 16.7594 50.5982 28.7985 50.5982C40.8375 50.5982 50.5971 40.8386 50.5971 28.7996C50.5971 16.7605 40.8375 7.00092 28.7985 7.00092C16.7594 7.00092 6.99982 16.7605 6.99982 28.7996Z" fill="white" fill-opacity="0.53"/>
</g>
<defs>
<clipPath id="clip0_3878_5014">
<rect width="57.5991" height="57.5991" fill="white"/>
</clipPath>
</defs>
</svg>
