<svg width="49" height="28" viewBox="0 0 49 28" fill="none" xmlns="http://www.w3.org/2000/svg">
<path id="Vector" d="M14.5 4C20.014 4 24.5 8.486 24.5 14C24.5 19.514 20.014 24 14.5 24C8.986 24 4.5 19.514 4.5 14C4.5 8.486 8.986 4 14.5 4ZM14.5 0C6.768 0 0.5 6.268 0.5 14C0.5 21.732 6.768 28 14.5 28C22.232 28 28.5 21.732 28.5 14C28.5 6.268 22.232 0 14.5 0ZM36.5 5.386C37.318 6.55 38.5 9.548 38.5 14C38.5 18.452 37.318 21.45 36.5 22.614C35.682 21.45 34.5 18.452 34.5 14C34.5 9.548 35.682 6.55 36.5 5.386ZM36.5 1C33.186 1 30.5 6.82 30.5 14C30.5 21.18 33.186 27 36.5 27C39.814 27 42.5 21.18 42.5 14C42.5 6.82 39.814 1 36.5 1ZM46.5 4C45.9696 4 45.4609 5.05357 45.0858 6.92893C44.7107 8.8043 44.5 11.3478 44.5 14C44.5 16.6522 44.7107 19.1957 45.0858 21.0711C45.4609 22.9464 45.9696 24 46.5 24C47.0304 24 47.5391 22.9464 47.9142 21.0711C48.2893 19.1957 48.5 16.6522 48.5 14C48.5 11.3478 48.2893 8.8043 47.9142 6.92893C47.5391 5.05357 47.0304 4 46.5 4Z" fill="white"/>
</svg>
