<svg width="377" height="292" viewBox="0 0 377 292" fill="none" xmlns="http://www.w3.org/2000/svg">
<path d="M360.5 211C360.5 231.82 342.326 251.444 311.125 266.01C280.128 280.482 237.13 289.5 189.5 289.5C141.87 289.5 98.8721 280.482 67.8745 266.01C36.6744 251.444 18.5 231.82 18.5 211C18.5 190.18 36.6744 170.556 67.8745 155.99C98.8721 141.518 141.87 132.5 189.5 132.5C237.13 132.5 280.128 141.518 311.125 155.99C342.326 170.556 360.5 190.18 360.5 211Z" stroke="#7EFBFE" stroke-width="5"/>
<path d="M360.5 211C360.5 231.82 342.326 251.444 311.125 266.01C280.128 280.482 237.13 289.5 189.5 289.5C141.87 289.5 98.8721 280.482 67.8745 266.01C36.6744 251.444 18.5 231.82 18.5 211C18.5 190.18 36.6744 170.556 67.8745 155.99C98.8721 141.518 141.87 132.5 189.5 132.5C237.13 132.5 280.128 141.518 311.125 155.99C342.326 170.556 360.5 190.18 360.5 211Z" stroke="#7EFBFE" stroke-width="5"/>
<path d="M360.5 159C360.5 179.82 342.326 199.444 311.125 214.01C280.128 228.482 237.13 237.5 189.5 237.5C141.87 237.5 98.8721 228.482 67.8745 214.01C36.6744 199.444 18.5 179.82 18.5 159C18.5 138.18 36.6744 118.556 67.8745 103.99C98.8721 89.5182 141.87 80.5 189.5 80.5C237.13 80.5 280.128 89.5182 311.125 103.99C342.326 118.556 360.5 138.18 360.5 159Z" stroke="#7EFBFE" stroke-width="5"/>
<path d="M360.5 159C360.5 179.82 342.326 199.444 311.125 214.01C280.128 228.482 237.13 237.5 189.5 237.5C141.87 237.5 98.8721 228.482 67.8745 214.01C36.6744 199.444 18.5 179.82 18.5 159C18.5 138.18 36.6744 118.556 67.8745 103.99C98.8721 89.5182 141.87 80.5 189.5 80.5C237.13 80.5 280.128 89.5182 311.125 103.99C342.326 118.556 360.5 138.18 360.5 159Z" stroke="#7EFBFE" stroke-width="5"/>
<path d="M359.5 96C359.5 116.82 341.326 136.444 310.125 151.01C279.128 165.482 236.13 174.5 188.5 174.5C140.87 174.5 97.8721 165.482 66.8745 151.01C35.6744 136.444 17.5 116.82 17.5 96C17.5 75.1802 35.6744 55.5557 66.8745 40.9896C97.8721 26.5182 140.87 17.5 188.5 17.5C236.13 17.5 279.128 26.5182 310.125 40.9896C341.326 55.5557 359.5 75.1802 359.5 96Z" stroke="#7EFBFE" stroke-width="5"/>
<g filter="url(#filter0_f_2616_17855)">
<path d="M359.5 96C359.5 116.82 341.326 136.444 310.125 151.01C279.128 165.482 236.13 174.5 188.5 174.5C140.87 174.5 97.8721 165.482 66.8745 151.01C35.6744 136.444 17.5 116.82 17.5 96C17.5 75.1802 35.6744 55.5557 66.8745 40.9896C97.8721 26.5182 140.87 17.5 188.5 17.5C236.13 17.5 279.128 26.5182 310.125 40.9896C341.326 55.5557 359.5 75.1802 359.5 96Z" stroke="#7EFBFE" stroke-width="5"/>
</g>
<defs>
<filter id="filter0_f_2616_17855" x="0" y="0" width="377" height="192" filterUnits="userSpaceOnUse" color-interpolation-filters="sRGB">
<feFlood flood-opacity="0" result="BackgroundImageFix"/>
<feBlend mode="normal" in="SourceGraphic" in2="BackgroundImageFix" result="shape"/>
<feGaussianBlur stdDeviation="7.5" result="effect1_foregroundBlur_2616_17855"/>
</filter>
</defs>
</svg>
