<svg width="346" height="161" viewBox="0 0 346 161" fill="none" xmlns="http://www.w3.org/2000/svg">
<path d="M2 54.7836V11.2603V2H211.63L223.491 11.2603H344.466V54.7836L323.858 70.7576H289.092L277.165 64.8541H249.052L237.126 70.7576H209.013H187.715L173.233 90.5915L154.491 70.7576H25.5723L2 54.7836Z" fill="#44475A" stroke="#666A87" stroke-width="3"/>
<g clip-path="url(#clip0_3640_13607)">
<path d="M260.57 151.982H253.509C251.023 151.982 249 150.647 249 148.994V92.2954C249 90.6426 251.023 89.3071 253.509 89.3071H260.583V151.969L260.57 151.982Z" fill="#363949"/>
<path d="M281.382 80.3025V161H265.078C262.592 161 260.569 159.665 260.569 158.012V83.2776C260.569 81.638 262.592 80.3025 265.078 80.3025H281.382Z" fill="#44475A"/>
<path d="M263.954 81.7701C264.563 81.7701 265.065 82.1007 265.065 82.5106V158.263C265.065 158.673 264.563 159.003 263.954 159.003C263.346 159.003 262.844 158.673 262.844 158.263V82.5106C262.844 82.1007 263.346 81.7701 263.954 81.7701Z" fill="#666B84"/>
<g style="mix-blend-mode:overlay" opacity="0.5">
<path d="M281.382 96.1829V115.699H265.078C262.592 115.699 260.569 115.924 260.569 116.202V98.1266C260.569 97.0556 262.592 96.1829 265.078 96.1829H281.382Z" fill="white"/>
</g>
<g style="mix-blend-mode:overlay">
<path d="M260.583 144.34V153.807C260.702 155.288 262.672 156.452 265.079 156.452H281.382V146.27H265.079C262.672 146.27 260.702 145.411 260.583 144.34Z" fill="#0C2732"/>
</g>
</g>
<g clip-path="url(#clip1_3640_13607)">
<g opacity="0.63">
<path d="M190.049 96.9298L172.634 116.753L155.365 96.9298C152.443 93.6591 145.329 91 139.472 91H107.605C101.747 91 97 94.058 97 97.8472V145.166C97 148.942 101.747 152.013 107.605 152.013H139.458C145.316 152.013 152.443 149.354 155.365 146.083L172.634 126.26L190.049 146.083C192.998 149.354 200.191 152.013 206.101 152.013H238.233C244.143 152.013 248.93 148.955 248.93 145.166V97.8472C248.93 94.0713 244.143 91 238.233 91H206.101C200.191 91 193.011 93.6591 190.049 96.9298Z" fill="#7EFBFE"/>
<path d="M107.605 93.2203H139.472C144.113 93.2203 150.208 95.4806 152.509 98.0599L170.955 119.24C171.881 120.303 173.388 120.303 174.314 119.24L192.931 98.0466C195.245 95.4806 201.407 93.2203 206.101 93.2203H238.233C242.292 93.2203 245.598 95.2944 245.598 97.8472V145.166C245.598 147.719 242.292 149.793 238.233 149.793H206.101C201.407 149.793 195.245 147.533 192.918 144.94L174.314 123.774C173.388 122.71 171.881 122.723 170.955 123.774L152.496 144.967C150.208 147.519 144.113 149.793 139.472 149.793H107.605C103.598 149.793 100.332 147.719 100.332 145.166V97.8472C100.332 95.2944 103.598 93.2203 107.605 93.2203Z" fill="#7EFBFE"/>
<path d="M243.598 120.542C244.702 120.542 245.598 121.438 245.598 122.542V146.822C245.598 147.927 244.702 148.822 243.598 148.822H206.101C201.407 148.822 195.245 146.548 192.918 143.969L174.313 122.803C174.181 122.652 174.062 122.503 173.955 122.356C173.316 121.472 174.169 120.542 175.26 120.542H243.598Z" fill="#6064AE"/>
<path d="M102.331 120.542C101.226 120.542 100.331 121.438 100.331 122.542V146.822C100.331 147.927 101.226 148.822 102.331 148.822H139.828C144.522 148.822 150.683 146.548 153.011 143.969L171.615 122.803C171.747 122.652 171.867 122.503 171.973 122.356C172.613 121.472 171.759 120.542 170.669 120.542H102.331Z" fill="#6064AE"/>
<g style="mix-blend-mode:overlay">
<path d="M245.597 136.723V143.996C243.719 144.98 241.273 145.565 238.602 145.565H206.47C200.56 145.565 193.367 143.079 190.418 140.007L173.004 121.447L155.735 140.007C152.812 143.079 145.685 145.565 139.828 145.565H107.974C104.959 145.565 102.248 144.807 100.331 143.584V136.431C102.248 137.308 104.959 137.867 107.974 137.867H139.828C145.685 137.867 152.812 136.059 155.735 133.812L173.004 120.25L190.418 133.812C193.367 136.059 200.56 137.867 206.47 137.867H238.602C241.273 137.867 243.719 137.441 245.597 136.723Z" fill="#4A422B"/>
</g>
</g>
</g>
<g clip-path="url(#clip2_3640_13607)">
<path d="M85.8125 89.3203H92.8866C95.3724 89.3203 97.3955 90.6558 97.3955 92.3086V149.007C97.3955 150.66 95.3724 151.995 92.8866 151.995H85.8125V89.3335V89.3203Z" fill="#363949"/>
<path d="M85.7992 83.2776V158.012C85.7992 159.665 83.7893 161 81.3035 161H65V80.3025H81.3035C83.7893 80.3025 85.7992 81.638 85.7992 83.2776Z" fill="#44475A"/>
<path d="M82.4271 159.532C81.8189 159.532 81.3164 159.202 81.3164 158.792V83.0528C81.3164 82.6429 81.8189 82.3124 82.4271 82.3124C83.0353 82.3124 83.5378 82.6429 83.5378 83.0528V158.805C83.5378 159.215 83.0353 159.546 82.4271 159.546V159.532Z" fill="#666B84"/>
<g style="mix-blend-mode:overlay" opacity="0.5">
<path d="M85.7992 98.1266V116.202C85.7992 115.924 83.7893 115.686 81.3035 115.686H65V96.1829H81.3035C83.7893 96.1829 85.7992 97.0556 85.7992 98.1266Z" fill="white"/>
</g>
<g style="mix-blend-mode:overlay">
<path d="M85.7992 144.34V153.807C85.6802 155.288 83.71 156.452 81.3035 156.452H65V146.27H81.3035C83.71 146.27 85.6802 145.411 85.7992 144.34Z" fill="#0C2732"/>
</g>
</g>
<defs>
<clipPath id="clip0_3640_13607">
<rect width="32.3822" height="80.6976" fill="white" transform="translate(249 80.3025)"/>
</clipPath>
<clipPath id="clip1_3640_13607">
<rect width="151.93" height="61" fill="white" transform="translate(97 91)"/>
</clipPath>
<clipPath id="clip2_3640_13607">
<rect width="32.3822" height="80.6976" fill="white" transform="translate(65 80.3025)"/>
</clipPath>
</defs>
</svg>
