<svg width="41" height="32" viewBox="0 0 41 32" fill="none" xmlns="http://www.w3.org/2000/svg">
<path id="Vector" d="M20.5 0C20.5 0 7.99109 -6.27041e-05 4.87109 0.835938C3.14909 1.29594 1.79594 2.65109 1.33594 4.37109C0.499937 7.49109 0.5 16 0.5 16C0.5 16 0.499937 24.5089 1.33594 27.6289C1.79594 29.3509 3.15109 30.7041 4.87109 31.1641C7.99109 32.0001 20.5 32 20.5 32C20.5 32 33.0089 32.0001 36.1289 31.1641C37.8489 30.7041 39.2041 29.3489 39.6641 27.6289C40.5001 24.5089 40.5 16 40.5 16C40.5 16 40.5001 7.49109 39.6641 4.37109C39.2041 2.65109 37.8489 1.29594 36.1289 0.835938C33.0089 -6.27041e-05 20.5 0 20.5 0ZM20.5 4C26.264 4 33.4818 4.26722 35.0938 4.69922C35.4318 4.78922 35.7088 5.06625 35.8008 5.40625C36.2828 7.20225 36.5 12.684 36.5 16C36.5 19.316 36.2828 24.7957 35.8008 26.5938C35.7108 26.9317 35.4338 27.2088 35.0938 27.3008C33.4837 27.7328 26.264 28 20.5 28C14.738 28 7.52025 27.7328 5.90625 27.3008C5.56825 27.2108 5.29122 26.9338 5.19922 26.5938C4.71722 24.7978 4.5 19.316 4.5 16C4.5 12.684 4.71722 7.20234 5.19922 5.40234C5.28922 5.06634 5.56625 4.78922 5.90625 4.69922C7.51625 4.26722 14.736 4 20.5 4ZM16.5 9.07031V22.9297L28.5 16L16.5 9.07031Z" fill="white"/>
</svg>
